<?xml version="1.0" encoding="UTF-8"?>
<svg xmlns="http://www.w3.org/2000/svg" xmlns:xlink="http://www.w3.org/1999/xlink" width="595pt" height="842pt" viewBox="0 0 595 842" version="1.1">
<g id="surface1">
<path style=" stroke:none;fill-rule:evenodd;fill:rgb(0%,0%,0%);fill-opacity:1;" d="M -141.8125 -18.503906 C 151.15625 -18.515625 444.117188 -18.515625 737.085938 -18.496094 C 737.085938 274.464844 737.109375 567.425781 737.078125 860.394531 C 444.117188 860.40625 151.15625 860.40625 -141.8125 860.394531 C -141.824219 567.425781 -141.824219 274.464844 -141.8125 -18.503906 Z M -112.621094 10.683594 C -112.632813 284.195313 -112.632813 557.695313 -112.621094 831.207031 C 160.886719 831.214844 434.386719 831.214844 707.898438 831.207031 C 707.90625 557.695313 707.90625 284.195313 707.898438 10.683594 C 434.386719 10.675781 160.886719 10.664063 -112.621094 10.683594 Z M 82.167969 205.464844 C 225.816406 205.453125 369.46875 205.453125 513.109375 205.464844 C 513.117188 243.476563 513.117188 281.476563 513.109375 319.484375 C 460.289063 319.503906 407.46875 319.476563 354.65625 319.496094 C 354.648438 376.316406 354.65625 433.125 354.65625 489.933594 C 354.496094 500.804688 354.957031 511.726563 354.425781 522.554688 C 316.566406 560.566406 278.527344 598.40625 240.65625 636.414063 L 240.578125 635.363281 C 240.679688 597.613281 240.585938 559.863281 240.628906 522.125 C 240.617188 454.585938 240.628906 387.035156 240.617188 319.496094 C 187.796875 319.476563 134.988281 319.503906 82.167969 319.484375 C 82.167969 281.476563 82.15625 243.476563 82.167969 205.464844 Z M 82.167969 205.464844 "/>
<path style=" stroke:none;fill-rule:evenodd;fill:rgb(87.889099%,65.818787%,34.910583%);fill-opacity:1;" d="M 82.167969 522.394531 C 124.71875 522.304688 167.277344 522.523438 209.828125 522.285156 C 220.566406 559.835938 229.816406 597.816406 240.578125 635.363281 L 240.65625 636.414063 C 187.828125 636.40625 135.007813 636.425781 82.179688 636.40625 C 82.15625 598.40625 82.179688 560.394531 82.167969 522.394531 Z M 82.167969 522.394531 "/>
<path style=" stroke:none;fill-rule:evenodd;fill:rgb(74.804688%,56.834412%,31.37207%);fill-opacity:1;" d="M 209.828125 522.285156 C 220.085938 521.90625 230.359375 522.203125 240.628906 522.125 C 240.585938 559.863281 240.679688 597.613281 240.578125 635.363281 C 229.816406 597.816406 220.566406 559.835938 209.828125 522.285156 Z M 209.828125 522.285156 "/>
</g>
</svg>
